<?xml version="1.0" encoding="UTF-8" standalone="no"?><!DOCTYPE svg PUBLIC "-//W3C//DTD SVG 1.1//EN" "http://www.w3.org/Graphics/SVG/1.1/DTD/svg11.dtd"><svg width="100%" height="100%" viewBox="0 0 128 128" version="1.1" xmlns="http://www.w3.org/2000/svg" xmlns:xlink="http://www.w3.org/1999/xlink" xml:space="preserve" xmlns:serif="http://www.serif.com/" style="fill-rule:evenodd;clip-rule:evenodd;stroke-linejoin:round;stroke-miterlimit:2;"><g><path d="M19.855,43.186l4.542,0c0.025,0.283 0,3.416 0,4.389l79.206,0l0,-4.389l4.542,0l0,9.203l-4.116,0l0,3.965l12.917,0l0,4.248l4.542,-0.142l0,16.85c-0.703,0 -4.174,0.003 -4.542,0l0,4.389c-1.47,0 -2.932,-0.054 -4.401,0l0,17.133l-4.542,0l0,4.956l-4.4,0l0,4.531l-4.117,0l0,4.247l-4.542,0l0,6.23l4.542,0l0,4.673l4.117,0l0,4.531l-12.633,0l0,-4.531l-4.259,0l0,-4.673l-45.138,0l0,4.673l-4.401,0l0,4.531l-13.059,0l0,-4.531l4.259,0l0,-4.673l4.542,0c0,0 -0.01,-4.601 0,-6.23l-4.542,0l0,-4.247l-4.117,0l0,-4.39c-1.395,0.006 -4.166,0.003 -4.4,0c0,-0.377 -0.003,-4.637 0,-5.239l-4.542,0l0,-16.991l-4.543,0l0,-4.389l-4.258,0l0,-16.85l4.258,0l0,-4.106l13.343,0l0,-3.965l-4.258,0c-0.003,-1.052 0,-8.403 0,-9.203Zm-4.542,17.557l-0,4.531l-4.259,0l-0,7.646l4.401,0l-0,-4.106l4.542,0l-0,-8.071l-4.684,0Zm92.832,0l0,8.071l4.4,0l0,4.248l4.401,0l0,-7.788l-4.401,0l0,-4.531l-4.4,0Z"/><path d="M24.397,39.221l79.206,-0l0,3.965c-1.876,0.13 -72.027,0.144 -79.206,0.141l0,-4.106Z" style="fill-rule:nonzero;"/><path d="M62.155,0l4.542,0l0,4.673l4.4,0l0,15.716c-1.464,0.105 -2.932,0.142 -4.4,0.142l0,12.46l4.542,0l0,4.531l-4.55,0l0,-4.389l-4.534,0l0,-4.248l-4.543,0c-0.003,-1.659 0,-12.483 0,-12.885c0.317,0 4.024,-0.003 4.543,0l0,-4.248l4.4,0c-0.047,-0.093 -0.003,-6.279 0,-7.079l-4.4,0l0,-4.673Z" style="fill-rule:nonzero;"/><path d="M38.592,11.469l4.542,0l0,4.673l4.542,0l0,12.601l-4.4,0l0,4.39l-4.684,0l0,-8.779l4.542,0l0,-7.929l-4.542,0l0,-4.956Z" style="fill-rule:nonzero;"/><path d="M85.15,20.673l4.542,-0l0,8.212l-4.4,-0l0,4.248l-4.826,-0c-0.003,-1.086 0,-8.313 0,-8.496c0.325,-0.012 4.165,-0.003 4.684,-0c-0.002,-0.167 0,-3.118 0,-3.964Z" style="fill-rule:nonzero;"/><path d="M80.466,16.142l4.717,0l-0,4.531c-0.337,0.012 -3.948,0.003 -4.717,0l-0,-4.531Z" style="fill-rule:nonzero;"/></g></svg>