<?xml version="1.0" encoding="UTF-8" standalone="no"?>
<!DOCTYPE svg PUBLIC "-//W3C//DTD SVG 1.1//EN" "http://www.w3.org/Graphics/SVG/1.1/DTD/svg11.dtd">
<svg width="100%" height="100%" viewBox="0 0 370 86" version="1.1" xmlns="http://www.w3.org/2000/svg" xmlns:xlink="http://www.w3.org/1999/xlink" xml:space="preserve" xmlns:serif="http://www.serif.com/" style="fill-rule:evenodd;clip-rule:evenodd;stroke-linejoin:round;stroke-miterlimit:2;">
    <g transform="matrix(1,0,0,1,-19.335,-9.46817)">
        <path d="M85.896,61.248C92.341,56.871 98.528,52.468 103.493,49.087C106.162,47.27 125.93,33.367 153.925,37.559C171.172,40.142 184.518,49.03 191.533,58.062C196.297,64.196 197.728,71.039 194.555,77.58C191.517,83.844 187.306,87.533 182.722,89.33C175.848,92.024 164.899,91.915 158.933,88.308C152.244,84.265 151.039,76.202 152.399,70.22C154.348,61.651 162.479,57.061 168.701,57.763C171.932,58.128 175.339,61.024 176.102,63.206C176.854,65.359 178.758,69.064 174.722,72.623C174.515,72.805 172.29,73.628 170.903,71.835C170.417,71.208 171.021,70.133 171.228,69.951C173.066,68.33 173.895,68.003 174.509,66.681C175.078,65.453 174.75,64.139 174.431,63.229C173.773,61.347 171.904,59.692 169.117,59.377C163.306,58.722 157.336,61.048 155.516,69.05C154.237,74.671 156.377,82.197 162.663,85.997C168.374,89.45 175.47,89.693 182.05,87.114C186.435,85.395 190.75,82.92 193.656,76.929C196.659,70.738 195.253,64.482 190.743,58.676C183.849,49.799 169.763,42.478 152.813,39.94C125.222,35.808 106.686,48.123 104.056,49.913C95.903,55.464 87.049,63.909 76.486,70.189C65.611,76.655 53.21,81.611 38.161,78.848C23.239,76.108 18.024,65.105 19.607,56.114C20.496,51.065 25.019,45.759 31.899,45.616C35.085,45.55 37.901,46.417 39.49,47.27C44.141,49.766 42.77,54.752 39.49,56.114C38.935,56.344 38.06,55.571 37.815,55.443C37.571,55.314 36.664,54.454 36.605,53.767C36.515,52.708 38.279,50.951 37.272,49.087C36.526,47.705 34.653,46.947 31.899,47.27C24.66,48.121 24.071,56.488 24.454,59.342C24.807,61.967 28.74,74.382 41.161,75.875C51.265,77.089 63.596,75.394 73.486,69.327C77.233,67.028 81.103,64.489 84.902,61.922C64.753,57.432 55.693,45.515 55.94,32.625C56.072,25.759 58.03,19.765 62.571,15.37C67.113,10.974 72.963,9.007 80.363,9.559C89.946,10.274 95.498,16.558 95.362,24.343C95.244,31.078 92.791,35.021 89.382,36.311C85.813,37.661 81.368,36.899 79.984,36.283C78.205,35.491 77.998,34.014 78.209,33.338C78.447,32.569 79.423,31.042 82.071,31.105C83.971,31.151 84.531,33.728 88.51,32.228C91.625,31.054 93.992,27.031 93.981,23.621C93.96,16.868 89.211,11.753 79.688,10.817C74.311,10.288 68.667,10.946 64.628,15.406C59.193,21.405 58.011,25.669 58.667,35.147C59.77,51.107 74.477,59.266 85.657,61.08C85.763,61.097 85.844,61.161 85.896,61.248ZM145.96,40.705C146.23,40.648 146.495,40.821 146.552,41.091C146.609,41.361 146.441,41.701 146.166,41.683C135.18,40.994 121.185,48.959 115.42,70.221C114.526,73.518 112.93,86.271 117.277,87.381C122.379,88.683 122.377,85.551 123.611,84.131C124.531,83.072 126.573,82.824 127.138,84.399C128.734,88.853 122.673,91.9 117.703,90.759C112.578,89.582 111.274,83.704 113.328,73.217C115.556,61.844 122.962,51.096 130.871,45.513C136.171,41.772 142.067,41.524 145.96,40.705ZM126.535,43.627C126.805,43.57 127.07,43.743 127.127,44.013C127.183,44.283 127.01,44.548 126.74,44.605C121.566,45.692 116.13,50.239 111.274,55.966C103.924,64.636 97.926,76.039 96.296,82.589C96.229,82.857 95.958,83.02 95.69,82.953C95.422,82.887 95.443,82.597 95.325,82.347C92.749,76.863 101.269,64.609 110.512,55.319C115.985,49.818 121.187,44.75 126.535,43.627ZM110.937,49.707C111.167,49.554 111.473,49.592 111.636,49.814C111.8,50.037 111.752,50.35 111.53,50.513C101.81,57.655 96.667,62.878 92.445,70.217C90.422,73.733 88.609,77.734 86.603,82.657C86.499,82.912 86.207,83.035 85.951,82.931C85.696,82.827 85.735,82.549 85.677,82.28C84.625,77.394 86.699,72.248 89.659,68.293C94.836,61.377 100.895,56.425 110.937,49.707ZM103.634,72.758C103.646,72.482 103.846,71.438 104.594,71.421C105.376,71.403 105.522,72.418 105.51,72.693C105.152,80.675 101.94,85.949 96.886,89.655C91.867,93.336 84.461,95.088 74.957,94.35C71.223,94.06 69.065,93.164 67.7,92.445C64.842,90.939 64.712,88.407 66.329,86.892C68.075,85.255 70.777,85.213 71.795,85.329C74.106,85.593 75.841,88.018 76.716,88.887C78.232,90.391 81.343,89.198 83.139,88.293C83.385,88.169 85.141,88.282 85.06,90.048C85.011,91.113 83.581,91.389 83.305,91.398C77.539,91.599 77.285,89.877 75.586,88.752C73.321,87.252 69.881,85.862 68.778,88.645C68.157,90.213 69.054,91.176 70.083,91.925C71.193,92.732 72.61,93.276 75.139,93.458C85.604,94.21 91.173,93.018 96.036,89.452C100.865,85.91 103.291,80.384 103.634,72.758ZM202.406,56.247C202.427,56.525 202.304,56.785 202.036,56.849C201.767,56.913 201.497,56.747 201.433,56.478C200.323,51.806 200.323,46.699 198.807,42.287C195.224,31.86 189.61,23.301 187.168,19.064C186.66,18.181 186.231,17.509 185.902,17.08C185.744,16.875 185.637,16.731 185.549,16.688C180.518,14.23 176.151,13.496 172.866,13.818C170.753,14.025 169.1,14.667 168.038,15.573C167.225,16.267 166.771,17.114 166.77,18.024C166.769,18.957 167.238,19.937 168.202,20.876C171.602,24.187 176.579,26.175 185.641,21.011C185.881,20.874 187.448,21.016 188.007,22.601C188.21,23.175 188.095,23.603 187.856,23.739C178.226,29.227 171.446,25.001 167.833,21.483C166.634,20.315 166.097,19.074 166.099,17.913C166.1,16.728 166.658,15.607 167.718,14.703C168.904,13.691 170.409,13.054 172.768,12.823C176.191,12.487 180.69,12.442 185.932,15.004C186.065,15.069 186.25,15.217 186.463,15.467C186.828,15.896 186.878,16.327 187.586,17.357C191.703,23.349 201.221,40.077 202.406,56.247ZM322.129,61.248C322.181,61.161 322.262,61.097 322.368,61.08C333.548,59.266 348.255,51.107 349.359,35.147C350.014,25.669 348.832,21.405 343.397,15.406C339.358,10.946 333.714,10.288 328.337,10.817C318.814,11.753 314.066,16.868 314.044,23.621C314.033,27.031 316.4,31.054 319.515,32.228C323.494,33.728 324.054,31.151 325.954,31.105C328.602,31.042 329.578,32.569 329.817,33.338C330.027,34.014 329.82,35.491 328.041,36.283C326.658,36.899 322.212,37.661 318.643,36.311C315.234,35.021 312.781,31.078 312.663,24.343C312.527,16.558 318.079,10.274 327.662,9.559C335.062,9.007 340.912,10.974 345.454,15.37C349.995,19.765 351.953,25.759 352.085,32.625C352.332,45.515 343.272,57.432 323.123,61.922C326.922,64.489 330.792,67.028 334.539,69.327C344.429,75.394 356.761,77.089 366.864,75.875C379.285,74.382 383.218,61.967 383.571,59.342C383.955,56.488 383.365,48.121 376.126,47.27C373.372,46.947 371.499,47.705 370.753,49.087C369.746,50.951 371.511,52.708 371.42,53.767C371.362,54.454 370.454,55.314 370.21,55.443C369.966,55.571 369.09,56.344 368.535,56.114C365.256,54.752 363.885,49.766 368.535,47.27C370.124,46.417 372.941,45.55 376.126,45.616C383.006,45.759 387.53,51.065 388.418,56.114C390.001,65.105 384.787,76.108 369.864,78.848C354.815,81.611 342.414,76.655 331.539,70.189C320.977,63.909 312.122,55.464 303.969,49.913C301.339,48.123 282.803,35.808 255.213,39.94C238.263,42.478 224.177,49.799 217.282,58.676C212.772,64.482 211.367,70.738 214.37,76.929C217.275,82.92 221.591,85.395 225.975,87.114C232.555,89.693 239.651,89.45 245.362,85.997C251.648,82.197 253.788,74.671 252.509,69.05C250.689,61.048 244.719,58.722 238.908,59.377C236.121,59.692 234.252,61.347 233.594,63.229C233.276,64.139 232.947,65.453 233.517,66.681C234.13,68.003 234.959,68.33 236.798,69.951C237.005,70.133 237.609,71.208 237.123,71.835C235.735,73.628 233.51,72.805 233.303,72.623C229.267,69.064 231.171,65.359 231.924,63.206C232.686,61.024 236.093,58.128 239.324,57.763C245.547,57.061 253.677,61.651 255.626,70.22C256.987,76.202 255.781,84.265 249.092,88.308C243.126,91.915 232.177,92.024 225.303,89.33C220.719,87.533 216.508,83.844 213.47,77.58C210.298,71.039 211.728,64.196 216.492,58.062C223.508,49.03 236.854,40.142 254.101,37.559C282.095,33.367 301.863,47.27 304.532,49.087C309.498,52.468 315.685,56.871 322.129,61.248ZM262.065,40.705C265.959,41.524 271.854,41.772 277.155,45.513C285.063,51.096 292.469,61.844 294.697,73.217C296.751,83.704 295.447,89.582 290.323,90.759C285.353,91.9 279.292,88.853 280.888,84.399C281.452,82.824 283.495,83.072 284.415,84.131C285.649,85.551 285.646,88.683 290.748,87.381C295.095,86.271 293.499,73.518 292.605,70.221C286.84,48.959 272.845,40.994 261.859,41.683C261.584,41.701 261.416,41.361 261.473,41.091C261.53,40.821 261.795,40.648 262.065,40.705ZM281.491,43.627C286.839,44.75 292.04,49.818 297.514,55.319C306.757,64.609 315.276,76.863 312.7,82.347C312.583,82.597 312.603,82.887 312.336,82.953C312.068,83.02 311.796,82.857 311.73,82.589C310.099,76.039 304.102,64.636 296.751,55.966C291.896,50.239 286.459,45.692 281.285,44.605C281.015,44.548 280.842,44.283 280.899,44.013C280.955,43.743 281.221,43.57 281.491,43.627ZM297.088,49.707C307.131,56.425 313.19,61.377 318.366,68.293C321.326,72.248 323.401,77.394 322.348,82.28C322.29,82.549 322.329,82.827 322.074,82.931C321.818,83.035 321.526,82.912 321.422,82.657C319.416,77.734 317.604,73.733 315.58,70.217C311.358,62.878 306.215,57.655 296.496,50.513C296.273,50.35 296.225,50.037 296.389,49.814C296.552,49.592 296.858,49.554 297.088,49.707ZM304.392,72.758C304.734,80.384 307.16,85.91 311.989,89.452C316.852,93.018 322.421,94.21 332.886,93.458C335.416,93.276 336.833,92.732 337.942,91.925C338.971,91.176 339.868,90.213 339.247,88.645C338.145,85.862 334.704,87.252 332.439,88.752C330.741,89.877 330.486,91.599 324.72,91.398C324.444,91.389 323.015,91.113 322.966,90.048C322.884,88.282 324.64,88.169 324.886,88.293C326.683,89.198 329.793,90.391 331.309,88.887C332.185,88.018 333.92,85.593 336.23,85.329C337.248,85.213 339.95,85.255 341.697,86.892C343.313,88.407 343.183,90.939 340.326,92.445C338.961,93.164 336.802,94.06 333.069,94.35C323.565,95.088 316.158,93.336 311.139,89.655C306.085,85.949 302.873,80.675 302.515,72.693C302.503,72.418 302.649,71.403 303.431,71.421C304.18,71.438 304.379,72.482 304.392,72.758ZM205.619,56.247C206.804,40.077 216.322,23.349 220.44,17.357C221.147,16.327 221.197,15.896 221.562,15.467C221.775,15.217 221.961,15.069 222.093,15.004C227.335,12.442 231.834,12.487 235.257,12.823C237.616,13.054 239.121,13.691 240.307,14.703C241.367,15.607 241.925,16.728 241.926,17.913C241.928,19.074 241.391,20.315 240.192,21.483C236.579,25.001 229.799,29.227 220.17,23.739C219.93,23.603 219.815,23.175 220.018,22.601C220.577,21.016 222.145,20.874 222.384,21.011C231.446,26.175 236.423,24.187 239.823,20.876C240.788,19.937 241.257,18.957 241.255,18.024C241.254,17.114 240.8,16.267 239.987,15.573C238.925,14.667 237.272,14.025 235.159,13.818C231.874,13.496 227.507,14.23 222.476,16.688C222.388,16.731 222.281,16.875 222.123,17.08C221.795,17.509 221.366,18.181 220.857,19.064C219.397,21.597 216.803,25.676 214.187,30.774C212.428,34.203 210.659,38.094 209.219,42.287C207.702,46.699 207.702,51.806 206.592,56.478C206.528,56.747 206.258,56.913 205.99,56.849C205.721,56.785 205.599,56.525 205.619,56.247Z"/>
    </g>
</svg>
